<svg width="161" height="51" viewBox="0 0 161 51" fill="none" xmlns="http://www.w3.org/2000/svg">
<path d="M117.252 45.3612L118.968 16.9669C119.098 14.828 117.555 13.2394 115.38 13.2731C114.88 13.2809 114.414 13.6889 114.34 14.1834L113.677 18.6164C113.611 19.0552 113.218 19.4437 112.771 19.4784C112.281 19.5168 111.935 19.1429 112.006 18.6701L113.439 9.08918C114.144 4.37392 110.84 0.598672 106.072 0.672688C101.304 0.746703 96.8522 4.64236 96.1469 9.35762L95.5151 13.5815L92.9421 13.6214C90.7671 13.6552 88.7409 15.2992 88.2299 17.4441L81.4393 45.9171C80.8663 48.3233 82.4711 50.3741 84.9198 50.3361L112.431 49.909C114.88 49.871 117.107 47.7604 117.252 45.3612ZM94.7002 44.7368L88.6585 44.8306C88.1982 44.8377 87.8803 44.4745 87.9484 44.0194C88.0164 43.5643 88.4448 43.1895 88.905 43.1823L94.9467 43.0885C95.407 43.0814 95.725 43.4446 95.6569 43.8997C95.5888 44.3549 95.1604 44.7297 94.7002 44.7368ZM95.3166 40.616L89.2748 40.7098C88.8146 40.717 88.4967 40.3538 88.5648 39.8985C88.6328 39.4434 89.0612 39.0686 89.5214 39.0615L95.5631 38.9677C96.0233 38.9605 96.3414 39.3237 96.2733 39.7789C96.2052 40.2341 95.7768 40.6089 95.3166 40.616ZM111.14 13.3389L99.7547 13.5157C99.2547 13.5235 98.7884 13.9315 98.7144 14.426L98.0513 18.859C97.9857 19.2978 97.593 19.6862 97.1461 19.721C96.656 19.7594 96.3097 19.3855 96.3804 18.9126L97.8135 9.33174C98.3828 5.52616 101.977 2.38075 105.825 2.32102C109.673 2.26128 112.341 5.30947 111.772 9.11505L111.14 13.3389Z" fill="#00FF00"/>
<path d="M20.7025 31.17C21.5425 31.5433 22.1865 32.0567 22.6345 32.71C23.1012 33.3447 23.3345 34.11 23.3345 35.006C23.3345 37.078 22.4759 38.6367 20.7585 39.682C19.0599 40.7273 16.8665 41.25 14.1785 41.25H2.86655L6.78655 21.65H17.1745C19.4705 21.65 21.2159 22.0607 22.4105 22.882C23.6052 23.6847 24.2025 24.8327 24.2025 26.326C24.2025 27.4273 23.8945 28.398 23.2785 29.238C22.6625 30.0593 21.8039 30.7033 20.7025 31.17ZM12.3585 26.27L11.7705 29.182H15.1305C16.5865 29.182 17.3145 28.6127 17.3145 27.474C17.3145 27.082 17.1652 26.7833 16.8665 26.578C16.5679 26.3727 16.1385 26.27 15.5785 26.27H12.3585ZM14.5425 36.63C15.2145 36.63 15.7559 36.4807 16.1665 36.182C16.5772 35.8647 16.7825 35.4167 16.7825 34.838C16.7825 34.4273 16.6239 34.11 16.3065 33.886C16.0079 33.662 15.6252 33.55 15.1585 33.55H10.9025L10.2865 36.63H14.5425ZM28.4708 20.474H34.7988L30.6548 41.25H24.3268L28.4708 20.474ZM53.3396 25.934L50.2876 41.25H44.3236L44.6036 39.85C43.4463 40.97 42.0649 41.53 40.4596 41.53C39.4143 41.53 38.4063 41.25 37.4356 40.69C36.4649 40.13 35.6716 39.318 35.0556 38.254C34.4583 37.1713 34.1596 35.902 34.1596 34.446C34.1596 32.8033 34.5236 31.31 35.2516 29.966C35.9983 28.622 36.9969 27.5673 38.2476 26.802C39.4983 26.0367 40.8516 25.654 42.3076 25.654C44.3609 25.654 45.8169 26.2887 46.6756 27.558L47.0116 25.934H53.3396ZM40.5716 34.138C40.5716 34.866 40.7676 35.454 41.1596 35.902C41.5703 36.3313 42.1303 36.546 42.8396 36.546C43.6609 36.546 44.3236 36.2287 44.8276 35.594C45.3503 34.9593 45.6116 34.11 45.6116 33.046C45.6116 32.318 45.4063 31.7393 44.9956 31.31C44.6036 30.862 44.0529 30.638 43.3436 30.638C42.5223 30.638 41.8503 30.9553 41.3276 31.59C40.8236 32.2247 40.5716 33.074 40.5716 34.138ZM66.3651 25.654C68.0264 25.654 69.3517 26.102 70.3411 26.998C71.3491 27.894 71.8531 29.182 71.8531 30.862C71.8531 31.4967 71.7877 32.1407 71.6571 32.794L69.9771 41.25H63.6491L65.1891 33.55C65.2637 33.102 65.3011 32.794 65.3011 32.626C65.3011 31.5247 64.7691 30.974 63.7051 30.974C62.2117 30.974 61.2691 31.9447 60.8771 33.886L59.3931 41.25H53.0651L56.1171 25.934H62.0811L61.7731 27.474C62.4264 26.858 63.1451 26.4007 63.9291 26.102C64.7317 25.8033 65.5437 25.654 66.3651 25.654ZM71.7452 46.962C70.2146 46.962 68.8799 46.71 67.7412 46.206L70.1212 41.81C70.5692 42.0527 71.0359 42.174 71.5212 42.174C71.9506 42.174 72.2959 42.034 72.5572 41.754C72.8186 41.474 73.0146 41.026 73.1452 40.41L76.0292 25.934H82.3572L79.5012 40.186C79.0532 42.426 78.1759 44.1153 76.8692 45.254C75.5812 46.3927 73.8732 46.962 71.7452 46.962ZM79.8652 24.702C78.7826 24.702 77.9146 24.422 77.2612 23.862C76.6079 23.2833 76.2812 22.5647 76.2812 21.706C76.2812 20.7167 76.6546 19.8953 77.4012 19.242C78.1479 18.5887 79.1186 18.262 80.3132 18.262C81.3959 18.262 82.2639 18.5327 82.9172 19.074C83.5706 19.5967 83.8972 20.2873 83.8972 21.146C83.8972 22.21 83.5239 23.0687 82.7772 23.722C82.0492 24.3753 81.0786 24.702 79.8652 24.702Z" fill="#00FF00"/>
<rect x="116" y="46" width="45" height="2" fill="#00FF00"/>
<rect x="117" y="42" width="30" height="2" fill="#00FF00"/>
<rect x="117" y="38" width="15" height="2" fill="#00FF00"/>
</svg>
